<svg xmlns="http://www.w3.org/2000/svg" width="337.5" height="27.5" viewBox="0 0 337.5 27.5">
  <defs>
    <style>
      .cls-1, .cls-4, .cls-5 {
        fill: none;
      }

      .cls-1 {
        stroke: #ccc;
      }

      .cls-2, .cls-9 {
        fill: #333;
        font-size: 14px;
      }

      .cls-2 {
        font-family: PingFangSC-Medium, PingFang SC;
        font-weight: 500;
      }

      .cls-3 {
        fill: #25be3d;
      }

      .cls-4, .cls-5 {
        stroke: #ef6000;
        stroke-linecap: round;
        stroke-width: 1.2px;
      }

      .cls-4 {
        stroke-linejoin: round;
      }

      .cls-5, .cls-7, .cls-8 {
        stroke-miterlimit: 10;
      }

      .cls-6 {
        fill: #fa0;
      }

      .cls-7 {
        fill: #0080ff;
      }

      .cls-7, .cls-8 {
        stroke: rgba(0,0,0,0);
      }

      .cls-8 {
        fill: #fff;
      }

      .cls-9 {
        font-family: SegoeUI, Segoe UI;
      }

      .cls-10 {
        font-family: YuGothicUI-Regular, Yu Gothic UI;
      }

      .cls-11 {
        font-family: MicrosoftJhengHeiUIRegular, Microsoft JhengHei UI;
      }
    </style>
  </defs>
  <g id="组_4611" data-name="组 4611" transform="translate(-21.5 -10.5)">
    <line id="直线_10" data-name="直线 10" class="cls-1" y2="16" transform="translate(209.5 16.5)"/>
    <g id="组_4600" data-name="组 4600">
      <text id="名冠微信客户转移BOT" class="cls-2" transform="translate(61 30)"><tspan x="0" y="0">名冠微信客户转移BOT</tspan></text>
      <g id="组_87" data-name="组 87" transform="translate(-21 -30)">
        <rect id="矩形_44" data-name="矩形 44" class="cls-3" width="5" height="5" rx="1" transform="translate(43 63)"/>
        <g id="组_86" data-name="组 86" transform="translate(65.632 41.397)">
          <path id="路径_52" data-name="路径 52" class="cls-4" d="M69.964,42.036h3.9v3.6" transform="translate(-69.964 -42.036)"/>
          <line id="直线_7" data-name="直线 7" class="cls-5" y1="3.176" x2="3.176" transform="translate(0 0.794)"/>
        </g>
        <rect id="矩形_46" data-name="矩形 46" class="cls-6" width="18" height="18" rx="4" transform="translate(52 50)"/>
        <rect id="矩形_45" data-name="矩形 45" class="cls-7" width="18" height="18" rx="4" transform="translate(43 41)"/>
        <path id="交叉_1" data-name="交叉 1" class="cls-8" d="M0,9V3.584A3.584,3.584,0,0,1,3.584,0H9V5.563A3.437,3.437,0,0,1,5.563,9Z" transform="translate(52 50)"/>
      </g>
      <text id="_用心为您设计好产品_" data-name=" 用心为您设计好产品！" class="cls-9" transform="translate(215 31)"><tspan x="0" y="0"> </tspan><tspan class="cls-10" y="0">用心</tspan><tspan class="cls-11" y="0">为</tspan><tspan class="cls-10" y="0">您</tspan><tspan class="cls-11" y="0">设计</tspan><tspan class="cls-10" y="0">好</tspan><tspan class="cls-11" y="0">产</tspan><tspan class="cls-10" y="0">品！</tspan></text>
    </g>
  </g>
</svg>
